Coordinates
version=1
nRows=6
nColumns=36
inDegrees=yes

Units are S.I. units (second, meters, Newtons, ...)
If the header above contains a line with 'inDegrees', this indicates whether rotational values are in degrees (yes) or radians (no).

endheader
time	pelvis_tilt	pelvis_list	pelvis_rotation	pelvis_tx	pelvis_ty	pelvis_tz	hip_flexion_r	hip_adduction_r	hip_rotation_r	knee_angle_r	knee_angle_r_beta	ankle_angle_r	subtalar_angle_r	mtp_angle_r	hip_flexion_l	hip_adduction_l	hip_rotation_l	knee_angle_l	knee_angle_l_beta	ankle_angle_l	subtalar_angle_l	mtp_angle_l	lumbar_extension	lumbar_bending	lumbar_rotation	arm_flex_r	arm_add_r	arm_rot_r	elbow_flex_r	pro_sup_r	arm_flex_l	arm_add_l	arm_rot_l	elbow_flex_l	pro_sup_l
      0.33000000	      0.35829936	     -3.15680785	      3.21834574	      0.35582301	      0.96640018	     -0.14687220	     -2.30897816	     10.95910558	     -2.13731486	      4.67837697	      0.08165308	      7.29288880	    -16.06056741	     -6.40441816	     27.24270115	     -6.66322092	     -2.94602141	     55.48895023	      0.96846488	      1.36292084	    -11.30447525	     -6.40441816	     -5.14455238	      0.47488235	      8.97793640	     10.35344237	     -2.97728515	    -13.90164515	     35.52647310	    103.56235668	     -1.90844219	     -0.62964596	    -14.89789237	     30.45240746	     99.50369813
      0.34000000	      0.32007787	     -2.94175138	      2.83214483	      0.36678205	      0.96652120	     -0.14658966	     -3.49720178	     10.75575421	     -1.80856537	      3.84499666	      0.06710785	      7.70112276	    -15.32363035	     -6.49772025	     27.72017486	     -6.34727257	     -3.61721141	     52.62564698	      0.91849081	      1.41357575	    -11.01205336	     -6.49772025	     -5.12199785	      0.23020359	      9.56891269	     10.81021116	     -2.89261314	    -14.21365600	     36.38629510	    104.35829344	     -3.12922987	     -0.20140172	    -17.29941183	     29.68836059	     97.93357782
      0.35000000	      0.08161122	     -2.75983299	      2.43713700	      0.37785463	      0.96610089	     -0.14633370	     -4.43466219	     10.56336301	     -1.44310669	      3.06681947	      0.05352610	      7.86494917	    -14.94181137	     -6.50744271	     28.32378358	     -6.06488120	     -4.34575671	     49.56603051	      0.86509043	      1.47774840	    -10.65443339	     -6.50744271	     -4.79147071	      0.04757877	     10.14608815	     11.18919181	     -2.92644816	    -13.99767023	     37.16660513	    104.49221244	     -4.40653263	     -0.19344608	    -17.97997457	     28.37396760	     97.63320994
      0.36000000	      0.15918139	     -2.59891027	      1.95783104	      0.38886691	      0.96590566	     -0.14607592	     -5.68130107	     10.37483277	     -0.98918218	      2.37442016	      0.04144145	      8.37866041	    -14.35516930	     -6.52940067	     28.39230976	     -5.88330490	     -5.28495050	     46.15761672	      0.80560239	      1.38113578	    -10.27715608	     -6.52940067	     -4.88973617	     -0.06578487	     11.01802516	     11.48696858	     -3.13561280	    -13.71614320	     38.15629528	    104.63714360	     -5.26920994	      0.00988294	    -19.27192215	     26.80237859	     97.09374997
      0.37000000	     -0.14775424	     -2.50244219	      1.58051896	      0.39997900	      0.96484222	     -0.14600551	     -6.41350238	     10.23022249	     -0.73406539	      1.85977998	      0.03245928	      8.73071340	    -13.86554605	     -6.54290564	     28.86601684	     -5.66103945	     -6.08498550	     42.63651427	      0.74414756	      1.34780351	     -9.82268114	     -6.54290564	     -4.50075931	     -0.11831141	     11.53599116	     11.79669824	     -3.21874731	    -13.46316832	     39.05136577	    104.71109751	     -6.53218341	      0.09339738	    -20.12571896	     25.59173233	     96.75776924
      0.38000000	     -0.22706486	     -2.40373614	      1.14936862	      0.41108967	      0.96387616	     -0.14592635	     -7.35211184	     10.06218034	     -0.49461946	      1.45179882	      0.02533867	      9.44122503	    -13.13630589	     -6.56530994	     28.91754805	     -5.48741861	     -7.11536537	     38.81870746	      0.67751426	      1.12627440	     -9.30774308	     -6.56530994	     -4.40085798	     -0.16863941	     12.23187135	     12.03710036	     -3.46439804	    -13.05477622	     40.09929126	    104.89152405	     -7.49304018	      0.25916956	    -21.40975200	     24.16011378	     96.38150814
